<?xml version="1.0" standalone="no"?>
<!DOCTYPE svg PUBLIC "-//W3C//DTD SVG 20010904//EN"
 "http://www.w3.org/TR/2001/REC-SVG-20010904/DTD/svg10.dtd">
<svg version="1.0" xmlns="http://www.w3.org/2000/svg"
 width="246.000000pt" height="246.000000pt" viewBox="0 0 246.000000 246.000000"
 preserveAspectRatio="xMidYMid meet">
<metadata>
Created by potrace 1.14, written by Peter Selinger 2001-2017
</metadata>
<g transform="translate(0.000000,246.000000) scale(0.100000,-0.100000)"
fill="#000000" stroke="none">
<path d="M416 2402 c-2 -2 2 -15 9 -30 19 -37 85 -195 85 -202 0 -3 -114 -5
-252 -5 l-253 0 -1 -867 c-1 -478 1 -869 5 -869 3 -1 239 -2 524 -3 l517 -1 0
140 0 140 -347 0 c-192 -1 -353 0 -358 2 -7 2 -10 86 -9 236 1 127 2 234 3
237 2 10 590 5 599 -5 5 -6 51 -109 102 -230 51 -121 103 -243 116 -272 13
-28 24 -54 24 -57 0 -3 12 -31 26 -63 31 -69 32 -72 82 -188 21 -49 46 -108
56 -130 9 -22 32 -74 49 -115 l32 -75 267 -2 267 -1 -13 31 c-7 18 -26 61 -41
97 -15 36 -35 83 -46 106 -10 22 -27 64 -38 92 l-21 52 43 -7 c23 -4 107 -7
187 -6 112 1 163 6 225 22 104 28 92 24 153 45 l52 18 0 155 c0 144 -1 155
-17 148 -221 -89 -351 -112 -493 -85 -201 38 -323 198 -347 455 -33 347 60
600 252 690 133 62 352 49 553 -33 l52 -22 0 164 0 164 -79 21 c-106 29 -179
36 -346 35 -163 0 -262 -21 -380 -80 -158 -77 -299 -242 -352 -410 -9 -30 -19
-54 -22 -54 -3 0 -73 156 -154 348 -82 191 -156 363 -166 382 l-17 35 -263 0
c-144 0 -264 -1 -265 -3z m310 -727 c50 -115 89 -212 87 -214 -6 -7 -464 -4
-471 4 -9 9 -10 409 0 415 4 3 71 6 150 5 l143 0 91 -210z"/>
</g>
</svg>
