<?xml version="1.0" encoding="UTF-8"?><svg id="Layer_2" xmlns="http://www.w3.org/2000/svg" viewBox="0 0 200.06 95.17"><defs><style>.cls-1{fill:#f7941d;}.cls-2{fill:#231f20;}</style></defs><g id="Layer_1-2"><g><path class="cls-2" d="M0,46.92V3.52H26.13v6.91H8.3v10.79H25.3v6.74H8.3v12.05H26.13v6.91H0Z"/><path class="cls-2" d="M63.72,46.58c-1.46,.33-2.93,.6-4.42,.8s-2.89,.3-4.22,.3c-2.21,0-4.12-.23-5.73-.7-1.6-.46-2.93-1.17-3.98-2.12-1.05-.95-1.82-2.16-2.32-3.64-.5-1.47-.75-3.22-.75-5.26V19.49h-9.06v-6.31h9.06V4.55l8.3-2.16V13.18h13.12v6.31h-13.12v15.87c0,1.93,.44,3.38,1.33,4.37,.88,.98,2.37,1.48,4.45,1.48,1.33,0,2.62-.11,3.88-.33s2.41-.48,3.45-.76v6.47Z"/><path class="cls-2" d="M93.4,46.92V24.94c0-3.7-1.37-5.54-4.12-5.54-1.37,0-2.68,.55-3.94,1.66-1.25,1.11-2.57,2.61-3.97,4.52v21.35h-8.1V0h8.1V11.55l-.4,6.11c.69-.82,1.38-1.55,2.09-2.21,.71-.65,1.47-1.2,2.29-1.64s1.71-.78,2.66-1.01c.95-.23,2-.35,3.15-.35,1.73,0,3.23,.28,4.52,.85,1.28,.56,2.36,1.36,3.22,2.39,.86,1.03,1.51,2.27,1.94,3.72,.43,1.45,.65,3.07,.65,4.86v22.64h-8.1Z"/><path class="cls-2" d="M131.82,46.92l-.2-4.42c-.71,.75-1.45,1.44-2.22,2.08-.78,.63-1.63,1.18-2.56,1.64s-1.94,.82-3.04,1.08c-1.09,.25-2.29,.38-3.6,.38-1.73,0-3.24-.25-4.55-.76s-2.4-1.22-3.29-2.12-1.55-2-2.01-3.29c-.46-1.28-.68-2.7-.68-4.25s.34-3.07,1.01-4.42c.67-1.35,1.7-2.51,3.09-3.49,1.38-.97,3.11-1.74,5.18-2.29,2.07-.55,4.5-.83,7.29-.83h4.42v-2.03c0-.86-.12-1.64-.37-2.34-.24-.7-.64-1.29-1.18-1.78-.54-.49-1.24-.86-2.11-1.13s-1.93-.4-3.19-.4c-1.99,0-3.96,.23-5.89,.68-1.94,.46-3.81,1.09-5.63,1.91v-6.47c1.62-.64,3.48-1.17,5.59-1.59,2.12-.42,4.31-.63,6.59-.63,2.5,0,4.65,.24,6.44,.71,1.79,.47,3.27,1.19,4.43,2.14,1.16,.95,2.02,2.14,2.57,3.57,.55,1.43,.83,3.09,.83,5v23.04h-6.94Zm-1.16-14.91h-4.95c-1.37,0-2.54,.13-3.49,.4s-1.73,.63-2.32,1.1-1.04,1-1.31,1.61c-.28,.61-.42,1.26-.42,1.94,0,1.37,.44,2.42,1.33,3.14,.88,.72,2.09,1.08,3.62,1.08,1.13,0,2.3-.41,3.52-1.23s2.56-1.99,4.02-3.52v-4.52Z"/><path class="cls-1" d="M139.39,0h7.9l23.18,54.05h-7.87L139.39,0Z"/><path class="cls-1" d="M191.96,46.92V24.94c0-3.7-1.37-5.54-4.12-5.54-1.37,0-2.68,.55-3.94,1.66-1.25,1.11-2.57,2.61-3.97,4.52v21.35h-8.1V13.18h7.01l.2,4.98c.69-.86,1.4-1.65,2.14-2.36,.74-.71,1.54-1.31,2.41-1.81,.86-.5,1.79-.88,2.79-1.14s2.11-.4,3.35-.4c1.73,0,3.23,.28,4.52,.85,1.28,.56,2.36,1.36,3.22,2.39,.86,1.03,1.51,2.27,1.94,3.72,.43,1.45,.65,3.07,.65,4.86v22.64h-8.1Z"/></g><g><path class="cls-2" d="M21.11,93.49c-1.32,.53-2.59,.92-3.83,1.18s-2.52,.39-3.85,.39c-2.14,0-4.03-.31-5.67-.94-1.64-.63-3.03-1.56-4.16-2.81-1.13-1.24-1.98-2.78-2.57-4.63-.58-1.84-.88-3.98-.88-6.42s.32-4.72,.95-6.67c.64-1.95,1.55-3.59,2.73-4.93s2.62-2.36,4.31-3.07c1.69-.7,3.59-1.06,5.69-1.06,.68,0,1.32,.02,1.92,.05s1.19,.09,1.76,.17,1.16,.19,1.75,.33,1.2,.31,1.84,.52v5.55c-1.29-.61-2.52-1.04-3.68-1.3s-2.23-.39-3.18-.39c-1.41,0-2.61,.25-3.61,.76-1,.51-1.82,1.22-2.47,2.14s-1.12,2.01-1.42,3.27c-.3,1.27-.45,2.66-.45,4.17,0,1.61,.16,3.04,.47,4.31,.31,1.27,.79,2.34,1.44,3.22,.65,.88,1.48,1.55,2.5,2.01s2.22,.69,3.61,.69c.5,0,1.04-.05,1.63-.15,.58-.1,1.17-.23,1.77-.39s1.19-.35,1.77-.57,1.13-.44,1.63-.67v5.23Z"/><path class="cls-2" d="M41.91,80.53c.03-.86-.01-1.6-.13-2.2s-.3-1.11-.55-1.5-.56-.68-.92-.86-.78-.27-1.25-.27c-.82,0-1.66,.34-2.53,1.01s-1.83,1.78-2.88,3.33v14.61h-5.68v-23.09h5.02l.2,3.36c.38-.59,.81-1.12,1.28-1.59s1.01-.88,1.59-1.22c.58-.34,1.23-.6,1.94-.78s1.49-.27,2.34-.27c1.17,0,2.2,.2,3.1,.6,.9,.4,1.66,1,2.27,1.78s1.07,1.78,1.36,2.97c.3,1.19,.42,2.56,.38,4.13h-5.57Z"/><path class="cls-2" d="M67.11,94.65l-.14-3.02c-.48,.52-.99,.99-1.52,1.42s-1.11,.81-1.75,1.13-1.33,.56-2.08,.74-1.57,.26-2.47,.26c-1.18,0-2.22-.17-3.11-.52s-1.64-.83-2.25-1.45c-.61-.62-1.06-1.37-1.38-2.25s-.47-1.85-.47-2.91,.23-2.1,.69-3.02c.46-.92,1.17-1.72,2.11-2.39s2.13-1.19,3.55-1.57c1.42-.38,3.08-.57,4.99-.57h3.02v-1.39c0-.59-.08-1.13-.25-1.6s-.44-.88-.81-1.22-.85-.59-1.44-.77-1.32-.27-2.18-.27c-1.36,0-2.71,.16-4.03,.47s-2.61,.75-3.85,1.31v-4.43c1.11-.44,2.38-.8,3.83-1.09,1.45-.29,2.95-.43,4.51-.43,1.71,0,3.18,.16,4.41,.49,1.23,.33,2.24,.81,3.03,1.47,.8,.65,1.38,1.47,1.76,2.44s.57,2.12,.57,3.42v15.77h-4.75Zm-.8-10.2h-3.39c-.94,0-1.73,.09-2.39,.27-.65,.18-1.18,.43-1.59,.75s-.71,.69-.9,1.1-.28,.86-.28,1.33c0,.94,.3,1.66,.91,2.15s1.43,.74,2.48,.74c.77,0,1.58-.28,2.41-.84,.83-.56,1.75-1.36,2.75-2.41v-3.09Z"/><path class="cls-2" d="M92,94.65v-15.05c0-2.53-.94-3.8-2.82-3.8-.94,0-1.84,.38-2.69,1.14s-1.76,1.79-2.72,3.09v14.61h-5.55v-23.09h4.8l.14,3.41c.47-.59,.96-1.13,1.47-1.61s1.06-.9,1.65-1.24c.59-.34,1.23-.6,1.91-.78s1.45-.27,2.3-.27c1.18,0,2.21,.19,3.09,.58s1.61,.93,2.2,1.64,1.03,1.55,1.33,2.55c.3,.99,.44,2.1,.44,3.33v15.5h-5.55Z"/><path class="cls-2" d="M122.86,87.85c0,1.32-.29,2.44-.88,3.38-.58,.93-1.36,1.69-2.32,2.27s-2.05,1.01-3.27,1.27-2.47,.4-3.74,.4c-1.7,0-3.23-.08-4.59-.24s-2.65-.39-3.86-.69v-5c1.42,.59,2.84,1.02,4.26,1.28,1.42,.27,2.75,.4,4.01,.4,1.45,0,2.54-.23,3.26-.69s1.08-1.06,1.08-1.81c0-.35-.08-.67-.23-.95s-.44-.56-.85-.83c-.42-.27-1-.54-1.76-.82s-1.75-.59-2.98-.94c-1.14-.32-2.13-.68-2.99-1.08-.86-.4-1.56-.88-2.13-1.42s-.98-1.18-1.26-1.9-.42-1.56-.42-2.53,.21-1.83,.64-2.66,1.06-1.56,1.9-2.19c.84-.63,1.89-1.13,3.15-1.49,1.26-.36,2.73-.55,4.41-.55,1.45,0,2.74,.08,3.86,.23s2.11,.32,2.98,.5v4.52c-1.32-.42-2.56-.72-3.72-.9-1.16-.17-2.31-.26-3.44-.26s-2.05,.2-2.74,.61c-.69,.41-1.03,.98-1.03,1.7,0,.35,.07,.66,.2,.93s.41,.54,.81,.8,.96,.53,1.68,.81,1.67,.59,2.85,.92c1.33,.38,2.45,.78,3.36,1.22s1.64,.92,2.19,1.47,.95,1.17,1.19,1.86c.24,.7,.36,1.49,.36,2.39Z"/><path class="cls-2" d="M148.45,94.42c-1,.23-2.01,.41-3.02,.55s-1.98,.2-2.89,.2c-1.52,0-2.82-.16-3.92-.48s-2.01-.8-2.73-1.45-1.25-1.48-1.59-2.49c-.34-1.01-.51-2.21-.51-3.6v-11.27h-6.2v-4.32h6.2v-5.91l5.68-1.48v7.39h8.98v4.32h-8.98v10.86c0,1.32,.3,2.31,.91,2.99s1.62,1.01,3.05,1.01c.91,0,1.8-.08,2.66-.23s1.65-.33,2.36-.52v4.43Z"/><path class="cls-2" d="M175.79,82.92c0,1.82-.26,3.48-.77,4.99-.52,1.51-1.26,2.8-2.23,3.88-.97,1.08-2.16,1.91-3.57,2.5-1.41,.59-3.02,.89-4.82,.89s-3.24-.25-4.59-.75-2.49-1.25-3.43-2.24c-.94-.99-1.66-2.23-2.16-3.73-.5-1.49-.75-3.23-.75-5.22,0-1.83,.26-3.5,.78-5,.52-1.5,1.27-2.78,2.25-3.84s2.17-1.88,3.58-2.47c1.41-.58,3-.88,4.77-.88s3.27,.25,4.61,.76c1.35,.51,2.49,1.26,3.43,2.26,.94,1,1.66,2.24,2.15,3.72s.74,3.19,.74,5.13Zm-5.77,.14c0-2.39-.45-4.19-1.35-5.4-.9-1.2-2.23-1.81-3.99-1.81-.97,0-1.8,.19-2.48,.57s-1.24,.9-1.68,1.56-.76,1.43-.97,2.31-.31,1.82-.31,2.82c0,2.41,.48,4.22,1.45,5.44,.97,1.22,2.3,1.83,3.98,1.83,.92,0,1.73-.19,2.41-.56s1.23-.89,1.66-1.55,.74-1.44,.95-2.33,.32-1.86,.32-2.89Z"/><path class="cls-2" d="M194.36,94.65v-15.05c0-2.53-.94-3.8-2.82-3.8-.94,0-1.84,.38-2.69,1.14-.86,.76-1.76,1.79-2.72,3.09v14.61h-5.55v-23.09h4.8l.14,3.41c.47-.59,.96-1.13,1.47-1.61s1.06-.9,1.65-1.24c.59-.34,1.23-.6,1.91-.78s1.45-.27,2.3-.27c1.18,0,2.21,.19,3.09,.58,.88,.39,1.61,.93,2.2,1.64s1.03,1.55,1.33,2.55,.44,2.1,.44,3.33v15.5h-5.55Z"/></g></g></svg>